<svg width="195" height="41" viewBox="0 0 195 41" fill="none" xmlns="http://www.w3.org/2000/svg">
                <path fill-rule="evenodd" clip-rule="evenodd" d="M26.2583 3.11977e-06C27.983 -5.96801e-05 29.4781 -0.000114146 30.711 0.100621C32.0146 0.207123 33.3215 0.442964 34.5821 1.08525C36.4556 2.03985 37.9788 3.56307 38.9334 5.43658C39.5757 6.69713 39.8115 8.00409 39.918 9.30762C40.0188 10.5405 40.0187 12.0357 40.0187 13.7604V26.2583C40.0187 27.983 40.0188 29.4781 39.918 30.711C39.8115 32.0146 39.5757 33.3215 38.9334 34.5821C37.9788 36.4556 36.4556 37.9788 34.5821 38.9334C33.3215 39.5757 32.0146 39.8115 30.711 39.918C29.4781 40.0188 27.983 40.0187 26.2583 40.0187H13.7604C12.0357 40.0187 10.5405 40.0188 9.30762 39.918C8.00409 39.8115 6.69713 39.5757 5.43658 38.9334C3.56307 37.9788 2.03985 36.4556 1.08525 34.5821C0.442964 33.3215 0.207123 32.0146 0.100621 30.711C-0.000114146 29.4781 -5.96801e-05 27.983 3.11977e-06 26.2583V13.7604C-5.96801e-05 12.0357 -0.000114146 10.5406 0.100621 9.30762C0.207123 8.00409 0.442964 6.69713 1.08525 5.43658C2.03985 3.56307 3.56307 2.03985 5.43658 1.08525C6.69713 0.442964 8.00409 0.207123 9.30762 0.100621C10.5406 -0.000114146 12.0357 -5.96801e-05 13.7604 3.11977e-06H26.2583ZM4.11558 6.98061C3.40102 8.383 3.40102 10.2188 3.40102 13.8905V26.1282C3.40102 29.7998 3.40102 31.6357 4.11558 33.038C4.74411 34.2716 5.74704 35.2745 6.98061 35.9031C8.383 36.6176 10.2188 36.6176 13.8905 36.6176H26.1282C29.7998 36.6176 31.6357 36.6176 33.038 35.9031C34.2716 35.2745 35.2745 34.2716 35.9031 33.038C36.6176 31.6357 36.6176 29.7998 36.6176 26.1282V13.8905C36.6176 10.2188 36.6176 8.383 35.9031 6.98061C35.2745 5.74704 34.2716 4.74411 33.038 4.11558C31.6357 3.40102 29.7998 3.40102 26.1282 3.40102H13.8905C10.2188 3.40102 8.383 3.40102 6.98061 4.11558C5.74704 4.74411 4.74411 5.74704 4.11558 6.98061Z" fill="url(#paint0_linear_346_4853)"/>
                <mask id="mask0_346_4853" style="mask-type:alpha" maskUnits="userSpaceOnUse" x="3" y="3" width="34" height="34">
                <path d="M3.40137 13.8787C3.40137 10.2112 3.40137 8.37747 4.11511 6.97667C4.74294 5.74449 5.74473 4.7427 6.97691 4.11487C8.37772 3.40112 10.2115 3.40112 13.879 3.40112H26.1404C29.8079 3.40112 31.6416 3.40112 33.0424 4.11487C34.2746 4.7427 35.2764 5.74449 35.9042 6.97667C36.618 8.37747 36.618 10.2112 36.618 13.8787V26.1401C36.618 29.8076 36.618 31.6414 35.9042 33.0422C35.2764 34.2744 34.2746 35.2762 33.0424 35.904C31.6416 36.6177 29.8079 36.6177 26.1404 36.6177H13.879C10.2115 36.6177 8.37772 36.6177 6.97691 35.904C5.74473 35.2762 4.74294 34.2744 4.11511 33.0422C3.40137 31.6414 3.40137 29.8076 3.40137 26.1401V13.8787Z" fill="#181818"/>
                </mask>
                <g mask="url(#mask0_346_4853)">
                <path fill-rule="evenodd" clip-rule="evenodd" d="M57.9645 -15.5907C58.4574 -14.7172 58.1489 -13.6095 57.2754 -13.1166C51.335 -9.7644 46.8958 -4.38802 42.7464 1.71747C41.4056 3.69034 40.0814 5.76442 38.7433 7.8602C36.0288 12.1117 33.2574 16.4525 30.1751 20.2189C29.9301 20.5182 29.5615 20.8537 29.0377 21.0335C28.4785 21.2254 27.9321 21.1749 27.4811 21.0049C26.7288 20.7213 26.2372 20.1031 25.9918 19.7732C25.6934 19.3721 25.4114 18.8967 25.1718 18.4852C25.1188 18.3942 25.0674 18.3053 25.017 18.2183C24.8214 17.8805 24.6425 17.5714 24.4558 17.2776C24.3836 17.1639 24.3161 17.062 24.253 16.9713C24.173 17.1169 24.0832 17.2956 23.9851 17.5137L23.9646 17.5591L23.9418 17.6032C23.6572 18.1529 23.2324 18.9936 22.7316 19.9848C21.7831 21.8622 20.562 24.2792 19.5046 26.2792C18.7001 27.8009 17.9302 29.1981 17.4014 29.9929C17.2691 30.1917 17.1162 30.4077 16.9554 30.5916C16.8786 30.6795 16.7535 30.8142 16.5888 30.9413L16.5855 30.9439C16.4875 31.0195 16.0422 31.3636 15.3796 31.3559C14.9689 31.3511 14.5449 31.2094 14.1967 30.9131C13.8792 30.6429 13.7249 30.3302 13.6502 30.1269C13.5143 29.757 13.5241 29.4257 13.5292 29.3045C13.5419 29.0052 13.6093 28.6938 13.671 28.4453C14.6626 24.4509 15.4852 20.6389 15.4385 16.7372C14.1251 18.7903 12.5033 20.8408 10.9462 22.8096C10.6271 23.213 10.3107 23.6131 10.0002 24.009C7.31877 27.4285 5.04705 30.5732 4.22478 33.5478C3.9069 34.6978 3.5181 36.7092 3.19185 38.7255C3.20386 39.1091 3.22207 39.4667 3.24897 39.7967C3.34962 41.0312 3.36063 42.9857 2.86868 44.4741C2.78715 44.7208 2.69935 44.9612 2.60383 45.1678C2.55718 45.2686 2.48824 45.4065 2.39379 45.548L2.39311 45.5491C2.33368 45.6381 2.10943 45.9743 1.68308 46.2029C1.43084 46.3382 1.04003 46.4708 0.564889 46.4087C0.0809026 46.3453 -0.277049 46.1079 -0.503101 45.8824C-0.873351 45.513 -0.982966 45.0895 -1.0098 44.9858L-1.01066 44.9825C-1.08674 44.689 -1.09506 44.3942 -1.09725 44.2348C-1.10713 43.5144 -0.978032 42.2595 -0.802842 40.9239C-0.703404 40.1658 -0.582255 39.3326 -0.447732 38.4832C-0.468168 37.5688 -0.461361 36.5806 -0.454502 35.5844C-0.454031 35.5159 -0.453561 35.4475 -0.453097 35.379C-0.441421 33.6515 -0.433512 31.8544 -0.541568 30.1263C-0.650118 28.3904 -0.871346 26.817 -1.28053 25.5326C-1.69183 24.2417 -2.24038 23.4072 -2.88772 22.9324C-2.90169 22.9222 -2.91328 22.9142 -2.92269 22.9079C-2.98664 22.9367 -3.12294 23.0131 -3.32963 23.2065C-3.95382 23.7903 -4.66502 24.9093 -5.37125 26.3829C-6.75175 29.2634 -7.75669 32.724 -7.96764 33.526C-9.40895 39.0051 -9.79523 42.3735 -7.86355 47.0808C-7.48279 48.0087 -7.92632 49.0696 -8.85422 49.4504C-9.78211 49.8311 -10.843 49.3876 -11.2238 48.4597C-13.5958 42.6793 -13.0017 38.3858 -11.4803 32.602C-11.2453 31.7087 -10.1716 27.995 -8.64664 24.8131C-7.90016 23.2555 -6.95195 21.6213 -5.8108 20.5539C-5.2312 20.0118 -4.47376 19.4938 -3.54489 19.321C-2.54083 19.1342 -1.57045 19.3942 -0.739534 20.0037C0.761355 21.1045 1.64254 22.7425 2.1802 24.4301C2.51362 25.4766 2.73531 26.606 2.88356 27.7559C4.12301 25.6745 5.65716 23.6614 7.14204 21.7678C7.46433 21.3568 7.78456 20.951 8.10095 20.5501C10.4629 17.5574 12.6099 14.8371 13.787 12.2451C14.0289 11.7126 14.3122 11.1913 14.6682 10.7944C14.9715 10.4561 15.8437 9.67346 17.0488 10.0863C17.5518 10.2587 17.8765 10.582 18.0625 10.819C18.2511 11.0593 18.3743 11.3081 18.4558 11.5034C18.6179 11.8917 18.7178 12.3205 18.7854 12.6915C19.0414 14.0963 19.0632 16.0545 19.0697 16.6298C19.0699 16.6531 19.0702 16.6741 19.0704 16.6928C19.0811 17.5819 19.0517 18.463 18.9898 19.3359C19.145 19.0289 19.296 18.7301 19.4413 18.4423C19.943 17.449 20.3783 16.587 20.6942 15.9761C21.0879 15.1101 21.5379 14.3596 22.0944 13.8177C22.7019 13.2259 23.5434 12.7946 24.5436 12.925C25.4327 13.0408 26.0771 13.5612 26.4727 13.9612C26.889 14.3822 27.2397 14.8861 27.5218 15.3302C27.7526 15.6937 27.9794 16.0855 28.1779 16.4287C28.2238 16.508 28.2682 16.5847 28.3108 16.6579C28.3191 16.6721 28.3273 16.6862 28.3354 16.7001C30.8876 13.4159 33.1718 9.83499 35.5167 6.15884C36.8829 4.01694 38.2698 1.84268 39.7424 -0.324117C43.9699 -6.54462 48.7955 -12.5019 55.4904 -16.2798C56.3639 -16.7727 57.4716 -16.4642 57.9645 -15.5907ZM29.0381 17.7638C29.0381 17.764 29.0356 17.7618 29.0307 17.7569C29.0356 17.7612 29.038 17.7637 29.0381 17.7638ZM2.53689 44.2465C2.53689 44.2465 2.53644 44.2428 2.53601 44.2347C2.53676 44.2423 2.53689 44.2465 2.53689 44.2465ZM15.104 12.9026C15.1042 12.9031 15.1044 12.9037 15.1047 12.9042C15.1025 12.8994 15.1023 12.8986 15.104 12.9026ZM23.8017 16.4362C23.8017 16.436 23.805 16.4381 23.8118 16.4433C23.805 16.4391 23.8017 16.4365 23.8017 16.4362Z" fill="url(#paint1_linear_346_4853)"/>
                </g>
                <path d="M53.1152 27.1918V13.0034H56.5772V14.2662C57.0596 13.7554 57.6366 13.3534 58.3082 13.0602C58.9798 12.7575 59.7034 12.6061 60.479 12.6061C61.4628 12.6061 62.3661 12.8379 63.189 13.3014C64.0214 13.7648 64.6835 14.3844 65.1754 15.16C65.6767 14.3844 66.3389 13.7648 67.1618 13.3014C67.9847 12.8379 68.888 12.6061 69.8718 12.6061C70.9123 12.6061 71.8534 12.8615 72.6953 13.3723C73.5466 13.8736 74.2229 14.5499 74.7242 15.4012C75.235 16.2431 75.4904 17.1843 75.4904 18.2247V27.1918H72.0284V19.147C72.0284 18.5984 71.8913 18.097 71.617 17.643C71.3521 17.1795 70.9927 16.8106 70.5386 16.5363C70.0941 16.2525 69.5927 16.1107 69.0347 16.1107C68.4766 16.1107 67.9705 16.2478 67.5165 16.5221C67.0719 16.787 66.7125 17.1464 66.4382 17.6004C66.1639 18.0545 66.0267 18.57 66.0267 19.147V27.1918H62.5647V19.147C62.5647 18.57 62.4323 18.0545 62.1675 17.6004C61.9026 17.1464 61.5432 16.787 61.0891 16.5221C60.6351 16.2478 60.129 16.1107 59.571 16.1107C59.0224 16.1107 58.521 16.2525 58.067 16.5363C57.613 16.8106 57.2488 17.1795 56.9745 17.643C56.7096 18.097 56.5772 18.5984 56.5772 19.147V27.1918H53.1152Z" fill="black"/>
                <path d="M77.7654 21.9421V13.0034H81.2274V21.0341C81.2274 21.5921 81.3646 22.1029 81.6389 22.5664C81.9132 23.0204 82.2773 23.3846 82.7314 23.6589C83.1949 23.9238 83.7009 24.0562 84.2495 24.0562C84.8171 24.0562 85.3279 23.9238 85.7819 23.6589C86.2359 23.3846 86.6001 23.0204 86.8744 22.5664C87.1487 22.1029 87.2859 21.5921 87.2859 21.0341V13.0034H90.7478L90.762 27.1918H87.3L87.2859 25.9007C86.794 26.4115 86.2123 26.8182 85.5407 27.1209C84.8691 27.4141 84.1502 27.5607 83.384 27.5607C82.353 27.5607 81.4118 27.3101 80.5605 26.8087C79.7092 26.298 79.0282 25.6216 78.5174 24.7798C78.0161 23.9285 77.7654 22.9826 77.7654 21.9421Z" fill="black"/>
                <path d="M97.7877 27.4472C97.0499 27.3999 96.3358 27.2533 95.6453 27.0074C94.9642 26.752 94.3589 26.4067 93.8292 25.9716C93.2995 25.5365 92.8927 25.0163 92.609 24.4109L95.5318 23.1623C95.6453 23.3515 95.8297 23.5549 96.0851 23.7724C96.3405 23.9805 96.6432 24.1555 96.9932 24.2974C97.3526 24.4393 97.7452 24.5102 98.1708 24.5102C98.5303 24.5102 98.8708 24.4629 99.1924 24.3683C99.5235 24.2643 99.7883 24.1082 99.9869 23.9001C100.195 23.692 100.299 23.4224 100.299 23.0914C100.299 22.7414 100.176 22.4718 99.9302 22.2826C99.6937 22.084 99.391 21.9374 99.0221 21.8428C98.6627 21.7387 98.3127 21.6442 97.9722 21.559C97.0736 21.3793 96.2365 21.1003 95.4608 20.7219C94.6947 20.3435 94.0751 19.8564 93.6021 19.2605C93.1387 18.6551 92.9069 17.9268 92.9069 17.0755C92.9069 16.139 93.1528 15.3303 93.6447 14.6493C94.146 13.9682 94.794 13.4432 95.5885 13.0743C96.3925 12.7054 97.258 12.521 98.185 12.521C99.3106 12.521 100.342 12.7575 101.278 13.2304C102.224 13.6939 102.971 14.3513 103.52 15.2026L100.781 16.8201C100.649 16.5931 100.465 16.385 100.228 16.1958C99.9917 15.9972 99.7221 15.8364 99.4194 15.7134C99.1167 15.581 98.7998 15.5053 98.4688 15.4864C98.0431 15.4675 97.6553 15.5053 97.3053 15.5999C96.9553 15.6945 96.6716 15.8553 96.454 16.0823C96.2459 16.3093 96.1419 16.612 96.1419 16.9903C96.1419 17.3498 96.2838 17.6194 96.5675 17.7991C96.8513 17.9693 97.1918 18.1018 97.5891 18.1964C97.9958 18.291 98.3836 18.395 98.7525 18.5085C99.5849 18.7828 100.365 19.1186 101.094 19.5159C101.831 19.9132 102.423 20.4003 102.867 20.9773C103.312 21.5543 103.525 22.2448 103.506 23.0488C103.506 23.9663 103.231 24.7703 102.683 25.4608C102.134 26.1419 101.425 26.6621 100.554 27.0216C99.6937 27.381 98.7715 27.5229 97.7877 27.4472Z" fill="black"/>
                <path d="M111.955 27.5607C110.65 27.5607 109.458 27.2249 108.38 26.5534C107.311 25.8818 106.455 24.9784 105.812 23.8434C105.178 22.7083 104.861 21.455 104.861 20.0834C104.861 19.0524 105.045 18.0876 105.414 17.189C105.783 16.2809 106.289 15.4864 106.932 14.8053C107.585 14.1148 108.342 13.5757 109.203 13.1878C110.063 12.8 110.981 12.6061 111.955 12.6061C113.062 12.6061 114.074 12.8426 114.991 13.3155C115.918 13.779 116.703 14.4175 117.347 15.231C117.99 16.0445 118.458 16.9714 118.751 18.0119C119.045 19.0524 119.111 20.1402 118.95 21.2753H108.578C108.711 21.805 108.928 22.2826 109.231 22.7083C109.534 23.1245 109.917 23.4603 110.38 23.7157C110.844 23.9616 111.369 24.0893 111.955 24.0988C112.56 24.1082 113.109 23.9663 113.601 23.6731C114.102 23.3704 114.518 22.9637 114.85 22.4529L118.382 23.2758C117.805 24.5339 116.945 25.5649 115.8 26.3689C114.656 27.1635 113.374 27.5607 111.955 27.5607ZM108.465 18.6788H115.445C115.341 18.1112 115.119 17.6005 114.779 17.1464C114.448 16.6829 114.036 16.314 113.544 16.0397C113.052 15.7654 112.523 15.6283 111.955 15.6283C111.388 15.6283 110.863 15.7654 110.38 16.0397C109.898 16.3046 109.486 16.6687 109.146 17.1322C108.815 17.5863 108.588 18.1018 108.465 18.6788Z" fill="black"/>
                <path d="M128.585 12.6061C129.966 12.6061 131.224 12.9419 132.359 13.6135C133.494 14.2851 134.398 15.1884 135.069 16.3235C135.741 17.4491 136.077 18.6977 136.077 20.0692C136.077 21.1003 135.883 22.0698 135.495 22.9779C135.107 23.8859 134.568 24.6852 133.877 25.3757C133.196 26.0568 132.402 26.5912 131.494 26.979C130.595 27.3668 129.626 27.5607 128.585 27.5607C127.696 27.5607 126.906 27.3621 126.216 26.9648C125.535 26.5581 124.962 26.0331 124.499 25.3899V27.1918H121.037V5.90918H124.499V14.777C124.962 14.1337 125.535 13.6135 126.216 13.2162C126.906 12.8095 127.696 12.6061 128.585 12.6061ZM128.542 24.2123C129.28 24.2123 129.947 24.0278 130.543 23.6589C131.148 23.2806 131.631 22.7792 131.99 22.1549C132.35 21.5306 132.529 20.8354 132.529 20.0692C132.529 19.3125 132.35 18.622 131.99 17.9977C131.631 17.364 131.148 16.8627 130.543 16.4938C129.938 16.1249 129.271 15.9404 128.542 15.9404C127.824 15.9404 127.18 16.1296 126.613 16.5079C126.045 16.8768 125.601 17.3782 125.279 18.0119C124.958 18.6362 124.797 19.322 124.797 20.0692C124.797 20.8354 124.958 21.5354 125.279 22.1691C125.601 22.7934 126.045 23.29 126.613 23.6589C127.18 24.0278 127.824 24.2123 128.542 24.2123Z" fill="black"/>
                <path d="M144.6 27.5607C143.294 27.5607 142.102 27.2249 141.024 26.5534C139.955 25.8818 139.099 24.9832 138.456 23.8575C137.822 22.7225 137.505 21.4692 137.505 20.0976C137.505 19.0571 137.69 18.0876 138.059 17.189C138.428 16.2809 138.934 15.4864 139.577 14.8053C140.23 14.1148 140.986 13.5757 141.847 13.1878C142.708 12.8 143.625 12.6061 144.6 12.6061C145.905 12.6061 147.092 12.9419 148.161 13.6135C149.239 14.2851 150.095 15.1884 150.729 16.3235C151.372 17.4586 151.694 18.7166 151.694 20.0976C151.694 21.1286 151.509 22.0935 151.14 22.9921C150.772 23.8907 150.261 24.6852 149.608 25.3757C148.965 26.0568 148.213 26.5912 147.352 26.979C146.501 27.3668 145.583 27.5607 144.6 27.5607ZM144.6 24.0988C145.29 24.0988 145.91 23.9143 146.458 23.5454C147.007 23.1765 147.437 22.6894 147.749 22.084C148.071 21.4786 148.232 20.8165 148.232 20.0976C148.232 19.3598 148.066 18.6882 147.735 18.0829C147.414 17.468 146.974 16.9809 146.416 16.6214C145.867 16.2525 145.262 16.0681 144.6 16.0681C143.919 16.0681 143.304 16.2525 142.755 16.6214C142.206 16.9903 141.771 17.4822 141.45 18.097C141.128 18.7119 140.967 19.3787 140.967 20.0976C140.967 20.8449 141.133 21.5212 141.464 22.1266C141.795 22.7319 142.235 23.2143 142.783 23.5738C143.342 23.9238 143.947 24.0988 144.6 24.0988Z" fill="black"/>
                <path d="M164.656 13.0034H168.118V27.1918H164.656L164.5 25.4325C164.113 26.0662 163.597 26.5817 162.954 26.979C162.32 27.3668 161.568 27.5607 160.698 27.5607C159.648 27.5607 158.664 27.3621 157.747 26.9648C156.829 26.5675 156.02 26.0189 155.32 25.319C154.63 24.619 154.086 23.8103 153.689 22.8927C153.301 21.9752 153.107 20.9915 153.107 19.9415C153.107 18.9294 153.292 17.9788 153.66 17.0897C154.039 16.2005 154.564 15.4202 155.235 14.7486C155.907 14.077 156.683 13.552 157.562 13.1737C158.442 12.7953 159.388 12.6061 160.4 12.6061C161.336 12.6061 162.174 12.8142 162.911 13.2304C163.659 13.6466 164.292 14.1763 164.813 14.8195L164.656 13.0034ZM160.613 24.2264C161.351 24.2264 162.003 24.042 162.571 23.6731C163.138 23.3042 163.583 22.8076 163.904 22.1833C164.226 21.5496 164.387 20.8543 164.387 20.0976C164.387 19.3314 164.226 18.6362 163.904 18.0119C163.583 17.3782 163.134 16.8768 162.557 16.5079C161.989 16.139 161.341 15.9546 160.613 15.9546C159.884 15.9546 159.218 16.1438 158.612 16.5221C158.016 16.891 157.539 17.3876 157.179 18.0119C156.829 18.6362 156.654 19.3314 156.654 20.0976C156.654 20.8638 156.834 21.559 157.193 22.1833C157.553 22.8076 158.03 23.3042 158.626 23.6731C159.232 24.042 159.894 24.2264 160.613 24.2264Z" fill="black"/>
                <path d="M170.96 27.1918L170.946 13.0034H174.408L174.422 14.2662C174.904 13.7554 175.481 13.3534 176.153 13.0602C176.824 12.7575 177.548 12.6061 178.324 12.6061C178.844 12.6061 179.364 12.6818 179.884 12.8331L178.522 16.3235C178.163 16.1816 177.803 16.1107 177.444 16.1107C176.886 16.1107 176.375 16.2478 175.912 16.5221C175.458 16.787 175.093 17.1511 174.819 17.6146C174.554 18.0687 174.422 18.5747 174.422 19.1328V27.1918H170.96Z" fill="black"/>
                <path d="M191.538 5.90918H195V27.1918H191.538V25.4183C191.084 26.052 190.511 26.5675 189.821 26.9648C189.13 27.3621 188.331 27.5607 187.423 27.5607C186.392 27.5607 185.427 27.3668 184.528 26.979C183.63 26.5912 182.835 26.0568 182.145 25.3757C181.464 24.6852 180.929 23.8907 180.542 22.9921C180.154 22.0935 179.96 21.1286 179.96 20.0976C179.96 19.0666 180.154 18.1018 180.542 17.2032C180.929 16.3046 181.464 15.5147 182.145 14.8337C182.835 14.1432 183.63 13.604 184.528 13.2162C185.427 12.8284 186.392 12.6345 187.423 12.6345C188.331 12.6345 189.13 12.8331 189.821 13.2304C190.511 13.6182 191.084 14.1337 191.538 14.777V5.90918ZM187.465 24.2264C188.203 24.2264 188.856 24.042 189.424 23.6731C189.991 23.3042 190.436 22.8076 190.757 22.1833C191.079 21.5496 191.24 20.8543 191.24 20.0976C191.24 19.3314 191.079 18.6362 190.757 18.0119C190.436 17.3782 189.986 16.8768 189.409 16.5079C188.842 16.139 188.194 15.9546 187.465 15.9546C186.737 15.9546 186.07 16.1438 185.465 16.5221C184.869 16.891 184.391 17.3876 184.032 18.0119C183.682 18.6362 183.507 19.3314 183.507 20.0976C183.507 20.8638 183.687 21.559 184.046 22.1833C184.406 22.8076 184.883 23.3042 185.479 23.6731C186.085 24.042 186.747 24.2264 187.465 24.2264Z" fill="black"/>
                <defs>
                <linearGradient id="paint0_linear_346_4853" x1="3.54671" y1="27.5122" x2="35.8528" y2="8.31796" gradientUnits="userSpaceOnUse">
                <stop stop-color="#04C5E6"/>
                <stop offset="0.458333" stop-color="#5368FC"/>
                <stop offset="1" stop-color="#F047F9"/>
                </linearGradient>
                <linearGradient id="paint1_linear_346_4853" x1="35.9992" y1="8.42728" x2="3.32895" y2="27.2209" gradientUnits="userSpaceOnUse">
                <stop stop-color="#F047F9"/>
                <stop offset="0.5" stop-color="#5E5AFF"/>
                <stop offset="1" stop-color="#04C5E6"/>
                </linearGradient>
                </defs>
              </svg>